<mxfile host="Electron" agent="Mozilla/5.0 (X11; Linux x86_64) AppleWebKit/537.36 (KHTML, like Gecko) draw.io/28.0.6 Chrome/138.0.7204.100 Electron/37.2.3 Safari/537.36" version="28.0.6">
  <diagram name="Page-1" id="hrKFDCmqT3pvL3Q5okxv">
    <mxGraphModel dx="1555" dy="1886" grid="1" gridSize="10" guides="1" tooltips="1" connect="1" arrows="1" fold="1" page="1" pageScale="1" pageWidth="850" pageHeight="1100" math="0" shadow="0">
      <root>
        <mxCell id="0" />
        <mxCell id="1" parent="0" />
        <mxCell id="mEPn0v1iP1Tas4O7Nhsf-4" value="" style="rounded=0;whiteSpace=wrap;html=1;" vertex="1" parent="1">
          <mxGeometry x="-400" y="40" width="200" height="360" as="geometry" />
        </mxCell>
        <mxCell id="mEPn0v1iP1Tas4O7Nhsf-39" style="edgeStyle=orthogonalEdgeStyle;rounded=0;orthogonalLoop=1;jettySize=auto;html=1;" edge="1" parent="1" source="mEPn0v1iP1Tas4O7Nhsf-1" target="mEPn0v1iP1Tas4O7Nhsf-2">
          <mxGeometry relative="1" as="geometry" />
        </mxCell>
        <mxCell id="mEPn0v1iP1Tas4O7Nhsf-45" style="edgeStyle=orthogonalEdgeStyle;rounded=0;orthogonalLoop=1;jettySize=auto;html=1;" edge="1" parent="1" source="mEPn0v1iP1Tas4O7Nhsf-1" target="mEPn0v1iP1Tas4O7Nhsf-4">
          <mxGeometry relative="1" as="geometry" />
        </mxCell>
        <mxCell id="mEPn0v1iP1Tas4O7Nhsf-1" value="" style="image;aspect=fixed;html=1;points=[];align=center;fontSize=12;image=img/lib/azure2/app_services/App_Services.svg;" vertex="1" parent="1">
          <mxGeometry x="-334" y="130" width="68" height="68" as="geometry" />
        </mxCell>
        <mxCell id="mEPn0v1iP1Tas4O7Nhsf-2" value="" style="image;aspect=fixed;html=1;points=[];align=center;fontSize=12;image=img/lib/azure2/app_services/App_Services.svg;" vertex="1" parent="1">
          <mxGeometry x="-334" y="260" width="68" height="68" as="geometry" />
        </mxCell>
        <mxCell id="mEPn0v1iP1Tas4O7Nhsf-3" value="" style="image;aspect=fixed;html=1;points=[];align=center;fontSize=12;image=img/lib/azure2/app_services/App_Service_Plans.svg;" vertex="1" parent="1">
          <mxGeometry x="-390" y="50" width="40" height="40" as="geometry" />
        </mxCell>
        <mxCell id="mEPn0v1iP1Tas4O7Nhsf-5" value="" style="rounded=0;whiteSpace=wrap;html=1;" vertex="1" parent="1">
          <mxGeometry x="-560" y="40" width="120" height="360" as="geometry" />
        </mxCell>
        <mxCell id="mEPn0v1iP1Tas4O7Nhsf-7" value="" style="rounded=0;whiteSpace=wrap;html=1;" vertex="1" parent="1">
          <mxGeometry x="-160" y="40" width="200" height="360" as="geometry" />
        </mxCell>
        <mxCell id="mEPn0v1iP1Tas4O7Nhsf-6" value="" style="rounded=0;whiteSpace=wrap;html=1;" vertex="1" parent="1">
          <mxGeometry x="-400" y="-160" width="200" height="160" as="geometry" />
        </mxCell>
        <mxCell id="mEPn0v1iP1Tas4O7Nhsf-8" value="" style="rounded=0;whiteSpace=wrap;html=1;" vertex="1" parent="1">
          <mxGeometry x="-160" y="-160" width="200" height="160" as="geometry" />
        </mxCell>
        <mxCell id="mEPn0v1iP1Tas4O7Nhsf-9" value="" style="image;aspect=fixed;html=1;points=[];align=center;fontSize=12;image=img/lib/azure2/containers/Container_Registries.svg;" vertex="1" parent="1">
          <mxGeometry x="-550" y="50" width="44.59" height="40" as="geometry" />
        </mxCell>
        <mxCell id="mEPn0v1iP1Tas4O7Nhsf-36" style="edgeStyle=orthogonalEdgeStyle;rounded=0;orthogonalLoop=1;jettySize=auto;html=1;" edge="1" parent="1" source="mEPn0v1iP1Tas4O7Nhsf-10" target="mEPn0v1iP1Tas4O7Nhsf-1">
          <mxGeometry relative="1" as="geometry" />
        </mxCell>
        <mxCell id="mEPn0v1iP1Tas4O7Nhsf-10" value="" style="image;aspect=fixed;html=1;points=[];align=center;fontSize=12;image=img/lib/azure2/containers/Container_Instances.svg;" vertex="1" parent="1">
          <mxGeometry x="-532" y="130" width="64" height="69" as="geometry" />
        </mxCell>
        <mxCell id="mEPn0v1iP1Tas4O7Nhsf-37" style="edgeStyle=orthogonalEdgeStyle;rounded=0;orthogonalLoop=1;jettySize=auto;html=1;" edge="1" parent="1" source="mEPn0v1iP1Tas4O7Nhsf-11" target="mEPn0v1iP1Tas4O7Nhsf-2">
          <mxGeometry relative="1" as="geometry" />
        </mxCell>
        <mxCell id="mEPn0v1iP1Tas4O7Nhsf-11" value="" style="image;aspect=fixed;html=1;points=[];align=center;fontSize=12;image=img/lib/azure2/containers/Container_Instances.svg;" vertex="1" parent="1">
          <mxGeometry x="-532" y="260" width="64" height="69" as="geometry" />
        </mxCell>
        <mxCell id="mEPn0v1iP1Tas4O7Nhsf-43" style="edgeStyle=orthogonalEdgeStyle;rounded=0;orthogonalLoop=1;jettySize=auto;html=1;entryX=0.5;entryY=1;entryDx=0;entryDy=0;" edge="1" parent="1" source="mEPn0v1iP1Tas4O7Nhsf-12" target="mEPn0v1iP1Tas4O7Nhsf-33">
          <mxGeometry relative="1" as="geometry">
            <Array as="points">
              <mxPoint x="-60" y="50" />
              <mxPoint x="-105" y="50" />
            </Array>
          </mxGeometry>
        </mxCell>
        <mxCell id="mEPn0v1iP1Tas4O7Nhsf-49" style="edgeStyle=orthogonalEdgeStyle;rounded=0;orthogonalLoop=1;jettySize=auto;html=1;entryX=0.5;entryY=0;entryDx=0;entryDy=0;" edge="1" parent="1" source="mEPn0v1iP1Tas4O7Nhsf-12" target="mEPn0v1iP1Tas4O7Nhsf-48">
          <mxGeometry relative="1" as="geometry" />
        </mxCell>
        <mxCell id="mEPn0v1iP1Tas4O7Nhsf-12" value="" style="image;aspect=fixed;html=1;points=[];align=center;fontSize=12;image=img/lib/azure2/compute/Function_Apps.svg;" vertex="1" parent="1">
          <mxGeometry x="-94" y="190" width="68" height="60" as="geometry" />
        </mxCell>
        <mxCell id="mEPn0v1iP1Tas4O7Nhsf-13" value="" style="verticalLabelPosition=bottom;html=1;verticalAlign=top;align=center;strokeColor=none;fillColor=#00BEF2;shape=mxgraph.azure.storage_blob;" vertex="1" parent="1">
          <mxGeometry x="-130" y="-102.5" width="50" height="45" as="geometry" />
        </mxCell>
        <mxCell id="mEPn0v1iP1Tas4O7Nhsf-42" style="edgeStyle=orthogonalEdgeStyle;rounded=0;orthogonalLoop=1;jettySize=auto;html=1;" edge="1" parent="1" source="mEPn0v1iP1Tas4O7Nhsf-14" target="mEPn0v1iP1Tas4O7Nhsf-12">
          <mxGeometry relative="1" as="geometry">
            <Array as="points">
              <mxPoint x="60" y="-80" />
              <mxPoint x="60" y="220" />
            </Array>
          </mxGeometry>
        </mxCell>
        <mxCell id="mEPn0v1iP1Tas4O7Nhsf-14" value="" style="verticalLabelPosition=bottom;html=1;verticalAlign=top;align=center;strokeColor=none;fillColor=#00BEF2;shape=mxgraph.azure.storage_queue;" vertex="1" parent="1">
          <mxGeometry x="-40" y="-102.5" width="50" height="45" as="geometry" />
        </mxCell>
        <mxCell id="mEPn0v1iP1Tas4O7Nhsf-15" value="" style="image;aspect=fixed;html=1;points=[];align=center;fontSize=12;image=img/lib/azure2/storage/Storage_Accounts.svg;" vertex="1" parent="1">
          <mxGeometry x="-150" y="-150" width="37.5" height="30" as="geometry" />
        </mxCell>
        <mxCell id="mEPn0v1iP1Tas4O7Nhsf-17" value="" style="image;aspect=fixed;html=1;points=[];align=center;fontSize=12;image=img/lib/azure2/app_services/App_Service_Plans.svg;" vertex="1" parent="1">
          <mxGeometry x="-150" y="50" width="40" height="40" as="geometry" />
        </mxCell>
        <mxCell id="mEPn0v1iP1Tas4O7Nhsf-18" value="" style="image;aspect=fixed;html=1;points=[];align=center;fontSize=12;image=img/lib/azure2/databases/SQL_Server.svg;" vertex="1" parent="1">
          <mxGeometry x="-390" y="-150" width="38" height="38" as="geometry" />
        </mxCell>
        <mxCell id="mEPn0v1iP1Tas4O7Nhsf-38" style="edgeStyle=orthogonalEdgeStyle;rounded=0;orthogonalLoop=1;jettySize=auto;html=1;" edge="1" parent="1" source="mEPn0v1iP1Tas4O7Nhsf-19" target="mEPn0v1iP1Tas4O7Nhsf-1">
          <mxGeometry relative="1" as="geometry" />
        </mxCell>
        <mxCell id="mEPn0v1iP1Tas4O7Nhsf-19" value="" style="image;aspect=fixed;html=1;points=[];align=center;fontSize=12;image=img/lib/azure2/databases/SQL_Database.svg;" vertex="1" parent="1">
          <mxGeometry x="-324" y="-112" width="48" height="64" as="geometry" />
        </mxCell>
        <mxCell id="mEPn0v1iP1Tas4O7Nhsf-21" value="" style="image;aspect=fixed;html=1;points=[];align=center;fontSize=12;image=img/lib/azure2/storage/Storage_Accounts.svg;" vertex="1" parent="1">
          <mxGeometry x="-10" y="360" width="37.5" height="30" as="geometry" />
        </mxCell>
        <mxCell id="mEPn0v1iP1Tas4O7Nhsf-22" value="SB SQL Server" style="text;html=1;align=center;verticalAlign=middle;whiteSpace=wrap;rounded=0;" vertex="1" parent="1">
          <mxGeometry x="-360" y="-150" width="120" height="30" as="geometry" />
        </mxCell>
        <mxCell id="mEPn0v1iP1Tas4O7Nhsf-23" value="PokeDB" style="text;html=1;align=center;verticalAlign=middle;whiteSpace=wrap;rounded=0;" vertex="1" parent="1">
          <mxGeometry x="-330" y="-40" width="60" height="30" as="geometry" />
        </mxCell>
        <mxCell id="mEPn0v1iP1Tas4O7Nhsf-24" value="ACR" style="text;html=1;align=center;verticalAlign=middle;whiteSpace=wrap;rounded=0;" vertex="1" parent="1">
          <mxGeometry x="-510" y="55" width="60" height="30" as="geometry" />
        </mxCell>
        <mxCell id="mEPn0v1iP1Tas4O7Nhsf-25" value="API Container" style="text;html=1;align=center;verticalAlign=middle;whiteSpace=wrap;rounded=0;" vertex="1" parent="1">
          <mxGeometry x="-555" y="205" width="110" height="30" as="geometry" />
        </mxCell>
        <mxCell id="mEPn0v1iP1Tas4O7Nhsf-27" value="UI Container" style="text;html=1;align=center;verticalAlign=middle;whiteSpace=wrap;rounded=0;" vertex="1" parent="1">
          <mxGeometry x="-550" y="330" width="100" height="30" as="geometry" />
        </mxCell>
        <mxCell id="mEPn0v1iP1Tas4O7Nhsf-28" value="App Service Plan" style="text;html=1;align=center;verticalAlign=middle;whiteSpace=wrap;rounded=0;" vertex="1" parent="1">
          <mxGeometry x="-375" y="55" width="150" height="30" as="geometry" />
        </mxCell>
        <mxCell id="mEPn0v1iP1Tas4O7Nhsf-29" value="API Webapp" style="text;html=1;align=center;verticalAlign=middle;whiteSpace=wrap;rounded=0;" vertex="1" parent="1">
          <mxGeometry x="-360" y="205" width="120" height="30" as="geometry" />
        </mxCell>
        <mxCell id="mEPn0v1iP1Tas4O7Nhsf-30" value="U&lt;span style=&quot;background-color: transparent; color: light-dark(rgb(0, 0, 0), rgb(255, 255, 255));&quot;&gt;I Webapp&lt;/span&gt;" style="text;html=1;align=center;verticalAlign=middle;whiteSpace=wrap;rounded=0;" vertex="1" parent="1">
          <mxGeometry x="-360" y="340" width="120" height="30" as="geometry" />
        </mxCell>
        <mxCell id="mEPn0v1iP1Tas4O7Nhsf-31" value="Background Process (Worker)" style="text;html=1;align=center;verticalAlign=middle;whiteSpace=wrap;rounded=0;" vertex="1" parent="1">
          <mxGeometry x="-155" y="260" width="190" height="30" as="geometry" />
        </mxCell>
        <mxCell id="mEPn0v1iP1Tas4O7Nhsf-32" value="App Service Plan - Serverless" style="text;html=1;align=center;verticalAlign=middle;whiteSpace=wrap;rounded=0;" vertex="1" parent="1">
          <mxGeometry x="-180" y="90" width="240" height="30" as="geometry" />
        </mxCell>
        <mxCell id="mEPn0v1iP1Tas4O7Nhsf-33" value="BLOB Storage" style="text;html=1;align=center;verticalAlign=middle;whiteSpace=wrap;rounded=0;" vertex="1" parent="1">
          <mxGeometry x="-172.5" y="-57.5" width="135" height="30" as="geometry" />
        </mxCell>
        <mxCell id="mEPn0v1iP1Tas4O7Nhsf-34" value="Queue Storage" style="text;html=1;align=center;verticalAlign=middle;whiteSpace=wrap;rounded=0;" vertex="1" parent="1">
          <mxGeometry x="-80" y="-57.5" width="130" height="30" as="geometry" />
        </mxCell>
        <mxCell id="mEPn0v1iP1Tas4O7Nhsf-35" value="Storage Account" style="text;html=1;align=center;verticalAlign=middle;whiteSpace=wrap;rounded=0;" vertex="1" parent="1">
          <mxGeometry x="-125" y="-146" width="130" height="30" as="geometry" />
        </mxCell>
        <mxCell id="mEPn0v1iP1Tas4O7Nhsf-46" style="edgeStyle=orthogonalEdgeStyle;rounded=0;orthogonalLoop=1;jettySize=auto;html=1;entryX=0.5;entryY=0;entryDx=0;entryDy=0;entryPerimeter=0;" edge="1" parent="1" source="mEPn0v1iP1Tas4O7Nhsf-1" target="mEPn0v1iP1Tas4O7Nhsf-14">
          <mxGeometry relative="1" as="geometry">
            <Array as="points">
              <mxPoint x="-180" y="150" />
              <mxPoint x="-180" y="-220" />
              <mxPoint x="-15" y="-220" />
            </Array>
          </mxGeometry>
        </mxCell>
        <mxCell id="mEPn0v1iP1Tas4O7Nhsf-47" style="edgeStyle=orthogonalEdgeStyle;rounded=0;orthogonalLoop=1;jettySize=auto;html=1;" edge="1" parent="1" source="mEPn0v1iP1Tas4O7Nhsf-1" target="mEPn0v1iP1Tas4O7Nhsf-12">
          <mxGeometry relative="1" as="geometry" />
        </mxCell>
        <mxCell id="mEPn0v1iP1Tas4O7Nhsf-48" value="" style="shape=image;verticalLabelPosition=bottom;labelBackgroundColor=default;verticalAlign=top;aspect=fixed;imageAspect=0;image=data:image/png,iVBORw0KGgoAAAANSUhEUgAAAQEAAABnCAYAAAAANvcOAAAABHNCSVQICAgIfAhkiAAAIABJREFUeF7tnQl8VdW1//dNwhxImBREJYCztuA8VuL4HNqKaJ9aa4mtnZ5F8f1fq0XfM7aW6rPvidXWPmtr0Dp9tBprFVsRo1XqDGoRQYE4MIgICQENZLj/9d3n7pt99z3n3nPuEKJmfz4XcoY9nD2svYbfWrtU9abeHihSD0yqmlRZXjnwsqGVlXUjKoc3bWjauKhIVfUWm0cPxPLI25u1twcCe2D3qt0ndar2BhWPV5iXYrHYq283rpwUmKn3wXbpgdLtUmtvpZ/pHoAD2Ko+aYiV9t+xYtK31KBxx6s+QyeorR+8Omr40GEx4QgaPtMd8Cn7uF4i8CkbsE9Dc8srBzwmHMDEyoMuVH2G7KpiZQNU6cCRqn3zGtXx8Yf771g56p71TeubPg3f8nloY8nn4SN7v7H7emBC1bi6eDw+efDeX1Nl5aNTKi7f/ctKuIOKdrV1dve1qLembD3Qywlk66He56F7YPeqCTXxeOeVA3Y5Sg0YW52WD44gVtJHbfto6V7Dhg5/dWPTxjfTXirCDfQTwyor7hlWObRmqCgou6veInxKUYrsVQwWpVs/f4XuVrVbdTze/mTfkfuqIV84L2MHNL3wK9W+ZU3zYFVRtahxUVHFAvQTLaq5EQ6ERsXbP1F9Yv3Hvdn4ZmPGRn6OHvaKA5+jwS7Wp7LTxlVHfVn5TgoxIFsq30feEatBi9pUm+3dfJ9vVptmUFfFAd9V/EhtamvR68233d2Zv1cc6M7e/gzWZVsCKmWRlfQdnPUreSfe3qram985bPjQEU9taNrQmDVTDi/sVbVXVUe87cH+ow9U/cccqtvW2boRBeW4sZVVv13btLY1h2I/c1nKPnNf1PtB3dYDEIDNqhlT4Fh22ZL+Q5N1w3Z/8t6zqm3jCjEPjlcDxUxoJ663fbhYdWxtqpNyJhVDLDA7vl13f9FXtK55uWJLrGWKtKeu2zqryBXBjSnVKRxZvIqqYirWqFTJorca38oK0OolAkUenM9y8UIAsARMHCLsvWsJiL1fr35X87I6ZJ+4avl4qTrxqg+Vqjon2R2xsv4KsaD5lVvGtsS0WDCjkH0FF9AWb50GF2ATJ9qJ2CI6CeqsK2Sd26MslLGdqrO2M9421q4/ri86lFhrmuWP+j6qX22QHqRXHNgeI/cZqBNToMjaZ6ED6LfjxJQvKl07V/3hO8+qibt7U7FfH6WO2n2Nerhhi4oP2Tv5bqlwDsUSCyoqB88Wa8SkIfudo3EKdoqVlMGFVBZTFCn2ELPzD62seE6sMdOE06oEkFW+x1fUoN2/orkuFLRgNErK+vdvb1kNenPGsKHDhopl5DG3bb1EwO2R3uusPZDJFCistrrs2IfVl4QxtdOISqXGDnlfzX15uCobvFPyUd/he8iCfEN1tm06RuT0ukLI6XABnfH22waKmZLF4KbSAcNU66rnhYa1xTY2NdW7z3v6tYFkG0Qmi54+tYkd+g/u8f2YbFVne0IHM/T0XSur7rH7udc60NNHvIe1T7Of8Y7bYLMHCfjHTu2bV6tvffF+NbW607fVxx/cqf7z2Hu0nsBOCWvBWMQL34wRb6ILYEHoye+TEEVov1CBaeg1fF7psbdoLz4ZZYNGVww74lLVp3J81rbyvYwVXBviG3oc+7t7dQJZu7D3BdMDiR1oNjI1bKedUAQeN/jXavqZ2zJ2GATihTd/r56K/zz5HnI6u9nHK+edNqFqwpTljctz3p2NLmDALkfKztg/sC08/+S9Z5Q2ISpVG/hihgeeYnQzyrjKmIqLYs4k/XdW4hJXsUUC1GkSBV7D241vN2SoKvkIQgnmAcJpfx+Edfi2BWp0+Xr97lsbx6ptlYdq/YdJ/YTwlQp30PTCDRM3x5rp42qe9YKFkl3U+0emHjCgm9J+lRWVh1ycMgEhAKPX36Ruv3StGjwwUynes4t+W6VejE9Pe9GAiESJNSlIiZWWybmR0FVMG350bUYiQLbmhbeotqaV7yxvXFmVrVyeGw28KOKq5bJattUUZZwpA11HyYAuS0lQ2S5HJF6WT8mSrC9Tfev9vt8AsiCYKdaWxrvVz858RcFp2emBhhL123l7qk07npsiKmwVka1lyX2qJFZ6/luNy+t6iUDQCPXA+0xC1+TDxBCBrxqTEANajGYbU6Aq7T8RU6BrCRjywR/V/T9eGIoAvPBGTH3vnnM8dtxpLDb8DQuulXVQenou3ECCC1gJq19ugZYQU8Y036Y2DDxWtQ09PFnrtvVvqE2v3R5Yn+lbkRvQcLDoNeoQUQOzJ/3A/1y7fRJ2HLRiVNoHQUA3wt+6DiEIMVVSZ48pBE64gGmIAYYLQAl76/lPqL2qUnUwpv6Wj5X6ya0j1Asd35fh6yJMNgHsFQfCjtZ2eI/Ft0W1TImrzikiy50mZiBMPu/EVGkN7KNmz+NtTzK4HbKAdqsaN6NcVVQX2uZuTIEVXzwvbbIzCW84f1FWAsDiv7G+Qv2z9RRfAkD34mVISrDWkUUCP1wA5VV+9KCqv2aDuvG+B9Sdaycld8W+I/bRC6Nza9MMWfDClncm2Ph4NU5QAoPW7YGlLhssC17kbxa9bXLUL+SRWMy6XPmxu0MItwoxaH3vmckyppNlvGvNeEs1U/qN3CdJAODAztpvfiABoFlwZjddtF5Nu/YWtbTsouS3oy8RwjMWQtdLBPIYwGJktRd+S7zpNOpgoqLl7SsTYMuyv4wVG3eN3G6Iq3bMYAr2HCIgNveJLR3Ni4Q4THE5hlzbmvAKPA2lkquEwhJw3VcyT8JVH8bUTQ+Wq8fe/4pe/EFSOiyq6ATYAt8pV0NmR22vFlfiTWm4AHbYS89o1MXVnNqpfn/1yykKQ+RkqXeykKAnTZ3eLr+TXvB8cybdQtR2ZnsfAoO+gl+iT8bK2D4pBP4pIUwVtrWD/p96tj8H4NYz61sfqlOuezYpRkAAvdTZSwTcztoe17Cx7WrbFGE7a2Qia6O7WfhMUpvVhBAIEahOyIeTByYUYLwDqw74prOjFS6hOl9CkLAE6IVFO+wE24qm35VDzTtpiz/VqzhZlFn8EDEiD5WosppcOJmEgi8Nmbhf3z8n28iueHLVPNXQ0WU1MDZ1dtVc2HrytbdInARpP7s4abeK5Wpwv09S+su+WLhuP33JgmecITZ+iT5n0UMcRYkphEqlEOId+zaqMSPDEQHe23+Hf6qlKhW5SZk9jhPwFkR7lV+ncK9clS/KZZIElbe97tsLX5BteuHDdrLIGfggGRMZUiukYh21rhnMIgQV+RIC2xRoy9e0EwKAJcDPFMjiv/FP/dTcFcfo3az/6FSgjunvtqYVenJr5Zjs/qKkqs1Vp5FQWs5w0YGU/W9T3k8Z4tOP2qz+dv/iFPxAUF+7c4OFTpkDO95Vuw99R+2xwzo1ZkSb2lvk8SFCYILkcrccpd7Tt+irVQKkfH5xTL20YoRa+ME+ClizLbsb8x5t3Co6DJsrMZaA9PL979DepVvSn3UrETAmFRRZYJxFK4k6o8rWssqCSG+ldadFLCoTxlYxcZol/yLJ3yhKMTG1lDbku/NlrLgAD5Hhxduumh3fXvhQfGS9MLKmVhzJt+vAHQTpcMxghhC0vHZ7heDyG4RjmBLW/GQ+MaFruM3PFMg74/o8p675fuo4oYCqe7SvuvWF4/TiHziu+IvftNd4CqZozOUhXACwZTtxPXzbP1SLSgcRpbwoF0Zht0PJm+qAnVeqQ/bfpvaRGRt+sbslpl6zO48ZqRJtXCfw6nXq8ReeVjc/VqU2Djk5hUPQc8ThxjKXnv502bodlBrk3debSSIVnQhg95VJL9rreLVhdalbs16ibHFZsGzmFVgvWDBhvSpQnMj1ZLmeJsozrTSTkgUn3Xe2n4klvVuKf8ezrXfUSB9MMfhuFleUhZ/WSpEN6aegSQEhQE8gokGFTOQnZVfXpqC0cgJuCBhFuwUjXrhEhiyDB3gKM/42i//e149W7SOqu3XxU38ULsB87rlHLFW/XroxZce1u6Ky6WE1afjL6uCDt6hD92WhhmO57TJy+RtxBe5qavUK9UDDzep/Hj9Cde58emBRLVv9Ca1fBsbpldUTBN/hPTVWCDAKBScCRrGVsKVOUfEObVYpSyhZjNLFb3L5Nd695yqneI4sBpsm7NJYwYRf3KZaLxaCMCeT04RbbiGvPcLXKcRPVZuFD4vfT5QxhdIuu7ue2376N6EjYEe7bbeq8ZVvN64Ip3ATcQOxJGiMXlo+TDTtJWrTlpj6y5L9VXznKSo2SqIGuY2QazT+W956uCBsv0/xHthHiKLbH35cgMnPQvvd88+pjlEn+xWprjrtqTQOwvfFIt6kjYfu+6z64U1vqzUjfqg3Szet2HqQiBNvhSJSdY+UaFHDJDZTEuK137i5dYW6Tk58gWKSgUbD4mqtdlITGaqovF6CIKA1xY0VjkHiWd0wWA2pLbYeQePpE6Y88/0seBY+fRC0oKJ+LPbdzk82qqFiKw6bNgswhD4RMWKOAGNqsuUTAtoosFTtHhzUbuRjW3Z1y4TdZPHrekkiwsiuU5OL/d8t21wnuIDG/qMOqLD1FmwIv5nym4wL+bLf9k9BLdp1fH3Ej9T0r/lDn4PaUqz77OBnzNpbtYy5wLeKUWuvywrSelME5gtuOy6F6AHM6tiyRoeAz8uBCOVWReWQ2mGVlfco8WaShT+pv3iUle/zr4qgkkx+osx2Z4L4sPgGjDks6TSxLbb1nOGVIxYVK3jFhKrxs8Wb6xeyKPbqP/ogNbCqWuO08a7Tjh3itRYmwaJJWG61X9kDasU/X/O4BmcH2LrWM3HZTjiUPaBtpZrQOkd9sE08x5zAHoyDDqYh3mTDhg4loEZDJkcd+qpzW3NN+6Z3A236JT47k/2N2+Q7SKWCnIv1GQDhEutg/Gyp/xKJ9beX1CGHkWxoDNMvQe9wsInok/5lyBe/mbJT7tM5R114Gh60wWnnER3q3r+nOjOZtwHtTDliU3DmbnyCB+aeoz5S9c/5t7Wl/wHqifkr1LiRzVq/4CbwGd+/9UDh1rrECkBSQKZFGfsTDoTJiRPwkFQdMwCwUCla2e7e8d2PDbqGHd38xn0eEqsIXEHCPr3RRakFtce+D6fCrtV3y2uqesJSddz+yKCdGuDB4H2n7qQ0kxe7up+2fuYhN6jTJ7eLLFmifjb/bN/Fa+CimOKygYqMdQBQiesoFObb/N5h8hFIBDCMNslpmGxpbVTFJWVrdKDauigXLsC0reaXu6ilg2akNRWrxTO1c7MCoNIyFvHGT24ZLKbN2sAa6NcRnQu178DuI1brjefl98aqRjGHsjbttFFQmXByg2OVQ+GQw21RiRI87Xa77Hrtk9lxsVEzSYJYxsAWywNtVxW2FlNReZ8WbXIhHTh2VaZsyWerNw5SazZVqkUbDvI4DlGU+SVPSXaRNkfJ7+KWWPOUQoJpNqvNoMwClXRum4zGeXz/heqYvd9VJ3zFX9vsarVNOUGOOxAAkme2u0cIgUec7fqNInHzW3+ZuLmjuUEW0hQ/BWpinGvctud7jVjIb9DurZoYANKReaCBMFGJgUYHRtQFuO3/6kGr1C9eXK1Ns3ZCH/L84r8GYiDccrrjmg1iXkN6W03dLPRNYvGAf1lqIArDlOrr07jBwjmJE5ECjSqP60IRgQTVJXoJLH9Oi99M/gmDFqs9Rq5Re+25RdtXgya7T9udWy1y3SLa6fdk93tI3fXCRLVh0LFpA2oyoThCTNj02h0aTCM6jILKp5nay4Q3uz0a5xMO8Xb7THmCnrkEd8gHd6rLZ6aa67IRAjzJQBe2dbSCLkyCijwZexPjfLE9zkFtyfU+32BMXnAnQpSw8DwpYtUNyxtXpG/NTkUJHwFfdKCLC8jURvrpurlCf8q7Ih7xPkThhSV9hAhszZS9W58Byvp/972RNr8R88KYlu3GGlyECUWWkQiYSSE2bT0pPDhj+J2/kJM/qMdhnaed0im/hUIMXtU21qbhp6d1FvmxLOB8kTCdPRjVdObXBrSrYBfQtrqWCxRjZ0/6h5p68racbMujBq7VlD0oIdfd8I03fdnWTIQgBUvQunEh/SBqsCYJzT0bzAbcHUTTJThB7cjnvoOKu1i4gupsokqQj0Ami0BQG79+8GvqzjVi3XB0HA3LxquZaklQth5xHy5aNjU9p6OMFfm8VNLA/4E6gYS2vw6Wywsg8ZVQFRnZZPL4N9TUo3Ob/Pn2MHLxdXMP8ExXPgosNNdCCHTse4Gp5g2vFfBSnEXjmqmO7vyxuvbCjpw/J0hmpUDEqfN2+e+s/vuZdATJfkh4rmlw0B5fTiNm7gfA1aE8Ax4LV7fTUB8YmmQyIhu+7R+X7qqtRe5is8sOo7NIcAFpnoJhLALud3ANau/U66ekBSDBqvGX6XeHMr/5lVuMexN/fHLaHMulHuM9GYuVHYM+Jo0T8OCsW+vi8Y7JTAqCF2SDVTIh+6xvUEePfVWdfubmPFj8XD4pPQ+74AmHvKRuvP919afGc9MUI1BNzF8iF4GqqxeOpyjRbnfeoXggkzFNt6rpl2QO4EHP0BdDBt2jrpq7SbWPPCals+iHykMu0uZUiUWXUa+BIo/3TtntGXVcdZcCM7337TueyAZMFjPV86LsvHPBntql1w8vb3QW4utO0IsGKUnrW+xkoga5BDcXLoByAQIducN89YrqsqFzn/YB550q2NZ8E4SGsoAIDxHE3vEHRwcgUUbY3Z6xQvm6Q8kSdcBOgjPYPFItHXBh8jPESqT/NgrZFCIggJJa6eQZRC4hcCHsf6YE9R328Xz1/eOX5iXnZqoj12eICTO/uVUd8mKdurI+HXlFhyYUJGNlwtVJPShJPhUJ992bfvhB6LYiT+488hF1/s1rBaSdKv9SSKZxZkKVCYE/6wtPq5pvb/MVPcI0BKgtv2mnLBGxbalvsAvKsQkBHow2rsHoAmivLQf7+QiEaZN5Z9qJm9Tz9V5odHMPDMSLywYJEYCQ5ZYgfDNvH6tWth+hiQpltjeuVrOfW6MX6A01i0KLiQ80xHwtPqZlhjvDSeiYfVapQy2F8433bVFLvYBD+nXt6KRxG17SRMCDtrbXi61bkGL7aht/JmUDnQ7lRQmTu2LPNKG4/3sL4FlZAKI8cxYAHA7adpHd8w5r5fcVDct2Uyc0vqU2CeBjiUwIEvqLsMnP4YO+/9Ex8yOzqSzA237wsvSD1O5DCPzahGh3wg53qcsvbc158fuV63FqS9TPb79aPdFyYZr+xiIE04QQKEMIjC7AjR2YKxdg2sYcHnbXfNXiePO9sno3eWWh3yeEundx3SSJ6vONFPdpuGt+G1vHq9seeS2UuAgXcO8/j9WoTBKEGR0Usv2E8iXqoKo16pCD2pLm5WyNg3OX2bjIvFeWQF1xgETFYGH9M6H7yFz50Z/0zu8pnrJV1zOeZ1oA7Crb1i8mzBSHYBT0bLz3Bv6rOvN/5yVZ7WFb5msFZtg0eECbEjtOMjH4hw68I+e+N/1wxb1b1aohNYHN0DZ8OTfg5mneuQGBL+bxAE4NJ6QHGq73xTVACJjkIpsLIZgg/iB9FplzBGy2OF8uwHyCnz/Bus69hYVfpAkuC5EUxY9g7cejlHymb9q55Y/qiv8Ipy+a+Qc51l38MtjBWX+0NYplbena4Sn+wtr/RhzvTMNKxAOrBuUfMnIQAWBSwIKiiPrTzCU5T0Lf3uimmyyAG2RSJ2GsVr3a9i59YHzSc2mS7ZVl8sP+gRykfKg/kyKvtPIedc13M9kLspeuCcH017Wd3i8x1sQL/NuVL3ULl8dmQlwCv/YAivJs+J115jjzQukC3G+nHSgm7YQiE8w9ytV/nX2kBOU4STtMhU2w5m6if8dsqlNz/qMxFHcFvPmNEu+A12MH/FL97eolmpuMwoFv3poaykUTeX1CkZeSIceDcOBkKH/3N+reHz6hNdFhAkm6H95Truk4QmLD0dgJsQALiNhNZ8AZRW0vyLcur6youcO9D/H61QWLC9L/jKGflp6x3nPLr7Ji0cO1OPxbLMBJO/oTJawVEGjQqb7xAk55P1RFIDAzJfoEpaed6KP6D2cIoOgS7c2HCfj5xcklk6k4/ay8Xyp+wxBYiHCYdQTxmbfh25oQVggHcPk3U8vL2oDEC7a3oTEPEunY5BdwYd96LrA5+yXYrQOrPojEBvmV01Pu1ZyyTbiax9Kaoz2sPG6gJu1hgW7AxkbZSXBjpf8hWl/b7U+RqH+mJt94f9+0aLhmgt500bpQE5Ty+RYWFz/DLmeqN9Ozlk/SDFX6dRt7kSsXQNsu+53A57KkaSduTuMUjQyv25KwGGQpJvkYzL9Jpn/DRmSe96IH/6ZO8n5531dDj4vbvrebJ1jt8AiJcAJN5mYZsFHcbsX8k4bA4iUaUUxTl9vgYl9Dgb9+0CsScDIVIAI3wICLZ1WNtGF2MdpB+SgIo7BytAP5ceYlhUGvsbvMWfYdGddUmDU6gNuvDBcynDL++PSuakXr/kmlHoRqpGDXq/dYERkfMmduH7Wy7TBV1i+41325ACdqUFDuOXP7qg0DjhYzZX1GbTyi0riyBWqNSg2lZpf78ru7yGVjUFUp93Ho6Xh/o17Ex1fcomZe2hJqIWNVuGpuV0BWzH3AywuRXPMgZWreBr/7eEdrsw706CRYor8snhhpB3PL6GnX2H7pWDeBGeeEllxEgnhbF6vmhZH2/LXdOqJcM4n2Lb1PzfrmO1GyBb5rgEOujR5uA31JNhaVnX/atTuoWQt+oNaMnK4BNpTFj0WKu+vDW2apc28/X51w2XjFbpYt0aZfvUgU41T8vsmHwxQpVy6AvA8v/oLGioBTyJa+cfS7aeKinWf5ZnHrDakXYPNE10Eotl98NzwBOP/mA1MwHSgEIVC5JAhKNpyPHiW4AWEPZiN3dkEKu6psHn6GDh31WUloeNm13GQWh3EKcp8HX8fq0Qng68/vo6drtYOGq2giP4E4wibaOefSdTlPALueTMjBvdWdWbkTJv43rx2llg68KAXog5cmc0bbnhOJBbd57IXqpocyq1dMm1wvN1OOiYPgywWE1AVQR8eok7SN/sXloiXPkvDrAPgWlDznouzEjfxwfL88/aG0UGxBZbMKIQB+JtywhMctG/O0rf9hrDzvza43k1+jwzxLwEcJae2Wowv5/Sun5i33pRWc4w0jh+baMVR74K7pCqWu3aizOkrTdMQecVNub1r5FL9YrOQq8rsKSIjMksYoJRfm3UwEAMI/fUpm33tacdktQ1Ii3DCZcEmF2AHB5mcnyr3mglQFrP08U5t4LxkIRf7Ohwv480tjksFPFq7dM6WNfhdwQ1/a5SW/R/oecwTnorApKBqzmz8TAcBcevhlh6l9fzBRHX4p0YTCbyRsOrE+QYHevVYktTH4FYs9dobsaA8CD3VRZLB+l/3uSXXHzKQ+wf2Ool3DVtLx+Eej5IC9gTAZsAQsXFTcgsa7WygqGh8Wlun3oa73mzjCTJFdcqLfu915L9tiG98vuykQortgw5eTkYMNxp9NQ75lLGMB+tIkCABmvyAWNlubbALgywWE1AWwsF7d9CXVPxFcs7XfHsL1PhvYLtP+mpO2qr/+4eVAhB7zUKllBRvGTASASoypmb8RL1q2iCnTJ4CIX4PYdIJELfN+ikqW0E/4duPnTee7i2KJOlc0wZnDNvk1JNd7dM70344TrHniiGlR8A60lLzsrGskjvqsBSvU/NfuVb+4YH1WuTaXttjHUUn+KvQGfuUQrEMkt0UlEryRwKcohLZnMhpmxtIv0b6v7v+236OUew8+U55cELD94voL7FQrKiAA9tFk6BcgAEFEOTQBoHzxaLTj4lFfFHRg3WP9UhYy8wW9QBBxMh+dTUG4fMu+ohdYVpC5luyPKv8xcgcH8Stb+9089nVCd5Wyk6cJN2WqXw2TAzdYN9GJl98+zr1dtGsGLEkAMtRCu16KzdBnroVNfqGY7Lzg1PGlEMtJkwRReVIg1VeWDhp9WlnluInGY9D9n2ecFcfR3UGEAs+67kgQ0J8+PjVwN6MNLNhDnZDcfm1rWN7FRpvYjcKQNrJIgZgbxRN6kak73xpIAOAogqIeUS9lw0WIOHUJ14yrrdTS6MCQugDy//29g1I+B4IVRi9ApkwKQk1MIuAFUhphXQAEQskaRKT98hGAJ0rSaEEreXiWLowAj9KMsygJZfJfJYNxJbKI6yPfvOPX1ZxHZ0XCwEdptP0u3laznwsHkGCAn988TcNQg3Yhu2w8utzUpRSNTxGI6pU8R2nFIEU5jkory2TCEl/PTURDIhhKMRME4Nu/O1IALodnrCbMroLe5eP4yCT81YCi9LkHxFFMcBncRwuO05Zfok2X3CmHkewcvOOxuBhH2YSup4x8dAG0+7tHLhBF7ALFQgA1h0vzm9vCyfMoCP/n8QbfkN+w13gFHn+w35dmv4dM/8ObdlSrKi9IM9WS28wfNmPmn00ITQSu7LV4b2i0YNoqT83t+xgloYThquHcO1xN7YR8csuzR8hCe6Yg7FCmj0E7jsy62rLbJn2hZbJ4h1wcnyyCwfm/honStnTNf6Z6zDPCnZHYxVn4TMJMjlRBZXqYg9FBj4t6v0u+7AosGVQhx1hlS+Aa7I3AmELpH0MAmKz7dN4RqAUP2yb6DdGCmJAku96oPgIo+LqctQzF907+yfbNPCf/qXu+qP7cfJIvuvKt9Zg0w5dn6kREM16tbpRf5vaWZQ+nKJThjoYfrfcjnVwUYvJBwB8aLZhgPo0Fx4YMky1NHOCmF567BCWhZtHchMmlTgAY3ZEOGLPcX7buaEV3obXIdlpfsr/2Xc+W/NhyOAF2IyK1gFvPhQBkq7eYz7MpmNy6d6rc7N5Ku8ZRxTYblwh3AwEwwU4hAPga3DR9XVpebkRtkyEEEAND8ygJAAAgAElEQVQ7RdEF+DYkh5vTJCKUH56Eosx5glGKnXV7P3Xp3Jo07gJcCfOYY9IlvgVHsp3fJ9Z/HFYmV69koxDD1G2jBY21Km75DVCGLyfAg0xKQli2W58/TpBhj6XAiRlwlDEk95iqMA32e+cMwZU/cLtE5E1ETDW7g3zIIlHE1YvYcr0ttrCIH38xu/Jn2YeyUztIUhx9XGWoaRMEkWg6OIWMKv9QjRmeHtDjzVWD1dotOyoUR7TXzx/DmzzRdxC/vrHvZVpsxJhn8Q75gueIkq0s+zk7oh3mDBHA7qMxm25XdZf6Iw1hyS+/U468cVyX6cvDBt4l5/d1qr+uOTMFd0Dd7hhE5QKifF+md+FEvzhontgB0kUY5iE6jrDoT6IFP7HlYpkXqSIirL8cGad3fxa9mJtrTZtEH1VlzyGXIGRqe5RngUSAQlAStrV/slIivaRNIFjlH960UP3krA80AOaO+SPUa1uO1yGkGLS9H60riN4ATSihlImkSmKCsMDa1r9RzcEJEtrrehanIQ4QqGwJmYyFOsAhAu7koxwUVfv1f1SdLnHoswcIxd7erE+FmfeiF/x0Y8WpKcQAsMkDDX8NpbfI9h3mOYvtinvlpFufOAHsMCy6mOM0FbZs3iNU3J+bvVN7U/qo8W718x+85SsWGnDRmhFyJoBVmTEfGr3NgXLcViZlIVm3BxdgmnzesevVZY+nBhzhGUfooRcIQwQg0N7R7KkEwDK1Nkuor7QzI6XfqiDeJuECfOhx4ZGDzHM3+AplERczWaj84SsOmBc0klCoE7ZJPyTh2lE/Uv9W/29q5jMz1bIhl2o2kUXIIv3j01V2PXn9zSS0EwseuR0NPqYqo6wKW8k84RSCUGqmDAjZbht/puPMgY1g0maD1Zq87CDIo3+tXajdr5n4JqG3+O287KCVsN9iFtv7A89Ky4KMaerOZxeBLSa6kJ1wLSdIiZ+5qosAdB2fRf2DV92q7v7W3SkE0LgS99n4j7T2mxthw9AHFpDHA8A+w7ctSCuBee5q3tNeStygj2xEJbcRs9lcQe8NVhVVfmcvyHJP4QSCyg+6j/Lbjxt1T+PKSAQoXLMnstCMssatEPbbryJOVc3mvumWFXR9/EHbUvzN4TZIidjzY20wBJONOG6Z0kMv7erbZvLoxSI73DUn3KwXf5QgEn514n79f2ffrco+fDL5uElg2MiH+Sa/xWaXCbG0iR2sp504oDJMog/+XaIZGWILYan98nxfAkB5s/44OIkupD8hGOeO/qmOReFHNCAEt3z9T7rf/dKTS3YNjdf3y5/vPTz4XPQnZYZBIJq6EansRCAbcCXCzVa7izL5nphgU3Zy0VmF4TyCvlfHvLDCipn3shIBXpRjv2voBD8Ho6AKIQ5z/jYk6HGk+3x4/61dCC06Ri/8xLmHRktNoShyMtm+IUzvqGN96+cbTUCNILgnrB2HcYZxjjGV0P7/OfOR5K4M0SQAapQy/BoM0GRl2+G+2mveh3VHDzD86NoUQI8pq1T6MCwElYV6+o436TkAGCiofyBuf1v7NT0O7Pw/mPBfau6l87LGooA4wFn4EYLVQy/QfgsQvbCJ72Kc+DHmjFuuqebU9IAjlOUhEMOVO2pA6qE6zAHZ6QOdKwj5Rx32cXNRuTnEFdahSVostMKKmfuhiACsilCth2BhXLYmU8cu2FA4fwMiGdvJLHzgzLYddeKQv/vuNibvjfUVvqIAHUTklgev8ldyMYkIAY6H3MOv7qnjuUVJEIIZh92T3E3Zof/z/gMiTWy3PkSOe75brybHLlcl7z/ou1uRB2Jgm9tMOR7oJdwkJg8YgFf/e25GfQYh0S4/uk6LUSYKTlgxKogQwHq/1+8MdfVtrlHN7RHvmkVPGPG71l+nf4is5/zhHEXIbrwgoxIE2n/y+C5OLqX/pK4w6aDxqRh1vcPLTh/ksSoBbjSBsHUwB+y0PExVkd8JRQQoVZSEM3A31pDRkAm2HV/uQiSOYbJlf8r2QndJ5JlEgk3NhChjcgB9dhPlAnQJsmiw437n9lP1uXWdwlL96gL/Az/cct1rFu0unwjbm0ja1Crhq/JJLBza/djlz6jL9p+l9th0reY4wuwa7EYPPR8eZRmmnZzmC9eQqxhlCAEhuOwEwfrgE2zz2dNvHt055RwB8hrcB7orAoBGTdPP2JoWcATi9MKywaGK2rsKEJAX6psMZocO9lj1nNhs4h0VI+Cawb3YgqloQdoSegYad2M/JSFKQ9hEl0ugkx5ZenBeu53pYdhP2zUXSmqLAWGi7wB5ttkjymaxHNLnd4EEgF3jf588NunffeTIxzNyGqa9Qf9fduY72npCYhHe9dIBQa9Gus9uxeLD9Zhd+NxR/6WGfPDHZF1BhWHRCSsSBJVR6PsQgsnjF6csGsZpYLxrEQXVCaH/57avBj3W97HYQNijJIgaViI3vd3UxW67z+zrnSW/AaNx3/JY9aVIHBHmWrqiYgQ8dGpXK+hD4VtS/AZ4GqknjLsxSkJ9wqz8tA+9uJFCBDgSyU1tI6ojd7hbhrn+0q7+SEA+bu9tErklALJKfkJqAXl20+BVf8gYvPMX945MOdc97EAEsZyIBWPjjyeb0T5icsH6xxTKhGVHxjqBgvOArT8N5A7YIWfdGW43c/uuWNfI/vP/uUOK9xuiKLJ5toS45xJ6Nw/EF2Rp1ITLtSHgJu8H26pCEVEIm62Yhc339AJxXyKAeRAzpEnM8WwK70zfY23Q+REBtJhybNcUQTU1g27iJ6G6NcKJH+yOa0rUu50cFlqIdNykljS5l87JhFijXnaHP7x2ZppFgLiKN35/ZaDpjx2SnTKXBGgqyDqC555h19kRnlhUvEUIB/XrGc2aO6juc7Wvcve5TWfmraTMpY/88tgWD/Mc8ebKU/6aVTMO4f1n6ykpxbJRrZ9/Wdp3c3htVG4AAs5hO3aC4JgzJfy+x77nwrTBAMhi9yUCojScZFvdYOVBb0ZJtvWny7pRssgtIxInQOa3Gt+SKVtRxTlmQBvlYIiqtxqX1/HD/OAHM86F/XIbyjVgHTs0NUSHiZ0peCOT6uI5B6Z5arEIT9p1bkbW3tWu0oaXVmSXoSEec1cco+a95K8P0VDchEhAmYs+/ILf5xb0HtwBuoNHf/SYGrX2uhSdgVFSbm+xgEV84lUHpQQvwbzoYguCOmbO37pcns07YPFJnvdjlzMaxJeAI1ETZ27Y5kLKCRtkxIVpG7yLbxsk6K1tHqTOISLyRUm2OOEXEt+UFZkIkBGOAIuBe7Y9IcpYpK5uAIpWCIAMcu9Ro5/RbWd3+Oa4G/XEDtI+m10lvvOUtL5jUqDsyZT8wBaLO76WdQfhsAgQlcvW7eBbPDuKzRpyWGeQ+OBbQB43IQYQTbgnw43o4gRtiGdbFDNcHs1Iy4q4dvYtMk7SjuTkFdzArec/kZFQm4IgYKDy7IQOycBx+Vb3bAMCjkTtd7/wY16QkbRPSrvhgp6M+c+LV9H1urm2zYOsKT+MRVoliRuMo21Z8AswavLmRASCKtY6A0l+eAIOoYzKfvnVc/CEj7Qt+bqv3JP1RF7iC6wZ0YVas8vD5JOLBhv2D5gr9mc30fGYoIjDRxo9JE38Smbh+CiTIJLEguuuBNGEELih1+mrqPb4fNuMyDT1p1Xqjvd+nHoysIxxECLRr84b/9RPQ9btxDwEkQfgDWCOOy/RhxhfF78y/e7Rd3gX2gTUCzLi93bqPWR6O1+XabszRSTwMw+6YKNstSGi2CC6TO+nz+RMb2d5ppFPsdgcz0SVGgeAxXPzY1VZSsj+GDMbp+MEgVVMCQRsINCIq2HlOTsCIaSyJQKP2GYd8z6T5473Z6p/qd1fUQ8EAQeRk689XhMA6mQHOngPCWEWkIYM7DqCir5B9OjOxGS+asqClN2RdgMFhyUP0mcUqo3s3BfOHqJ+cP/5OnKxLf9C5KMQAIgv4pc91kkuQJXU0WZB0c9mTFydFYFHonI/rnch4/f4C9mXEmIgsr1JsPu0GXiw3a8x5SkLbfPg6HInFl7EgeC7IYh+2bK33C9XhnuEL+ex32EmQInzRclRdhD7zzOzGze0XeFLAHgHh6QwrJU5/IM8btK7txw2+VT85xqQ0tBRq60IZiKyy8I6FiKxIA+9eHdNbKJO2Ez1Q0jPqLozndAJS87iBP1XyPpoC+MPt/TlG89Rr/S7MgW4pTXgYtaMQgAok0jYbkxMvesL3F3rqiQF6aywXoVZwHY/wkHiXWgSOy4nGGdLmghYWAHexwJgFr3Jj3kwhSjKAw6njZI0J2BZFzLlLTgR8JyOPHShWzEU849PRVfGuOUEXTNhTVhsPw7A5OPM9jCJwT65al4o4I1dHkq/H538SkZiFaZ++52OHU/U3Ae7dCGJAWZVgFLu5ERZ+Ofm/9TcDcQgquxs2s6YsPDhlI68/Cj1k4ZLks5m9vdR/54f/0rd/+NwBNou/64Xv5hC8LEIsOtLrMdauw4/nVWu+qrTDl2f0md2CLagsWXzchV0EBCiNKW2M9V7kGf6cNoIaZMwofYaYE7GraPH7KIyuhJHqNN5tXS2UPXTYMlsQA8vvf7xCcJq3pbV3BO1biYpMdtRAmYiAJpNF/Rh2DTzGy2q4ap6rbAKk5jMxw/7fUZorVuO3gGzbyQeyyztuOP9k9RdVz2mT1ICD5BvQrl64/03ajMqoo5JWqwR7ubhLSer+yT67g4lSxQElEjNcEl+yYg1WFHWfjJGYUeH+Gv5dGf/ABZ8fybEpl895h56Jn2ugPWS5kItLsA8kiP36tpU65UohQdJbESTPup7uMzJNyPNSYBZ180V7rrcmxfbBn1RCKW/V6XdfuJRLJXguMk2STQlEh6xRtGOedCW57Vrfmq4RLtI37/9zrfwAwqRuShEAMuBBER4R1iysS4RYIfBseiQffC9L0ya82iJuv6Z09SAqqOEtcqcQG1FOVYN6g17ev7NQsWzEBh0DbDXmUBLpnXYcAdJvA1SVBuwZhUTxOAvtY+o71W/Gono+PUQ3o6H7nO3uuKuhQovR5cdhThskuAaDagyRDydU++hHt2yNHsrxEPhOya/7NEdlHfY5o/DxZJ06wODUrpjl889si+LRnArte67LDKO3BOd1TSsN0Z7zpwkovIh+0SL/fj1g19Td67xNh3KeODpvmpmVWZdE8ripdaJ5CZeQLtqr5L2Nuo2i3nQjW0xZJA/0XW/0Vzr8GeJjcVYooI4gYKLA6YRsGJ+ihieF8qxyMj/Ny2+JFWzbPWMa66kTdkiDbsdi/4AZSTusDjqaOi0TDTzQ/4ElXfzmbeFIgAoxfDgMwnuIWqbyGv0Etcs9JSU+VpfMF3i7nvezrO0BYa+Ckrs7n6/TFyYX1nUARHLpOfxy8c9vhfQj50SuoBmowtw80rP1/mZC+c2RodPT50sfIVwuyY9tSLVOuHWzXV531QzkCG2oheo4rkxD9K3JkHY8nMh9kLfizjka64qCidA4xkEobqzhfWqcD3YjGNRmB0z2RM+f8x7sUxr48vYeZyE7LXp9dv13Yr9u+LVQRRyMQ0ySdktp5/5jLB9z6aY9KIOEEFN7EEGSZZLm8wna2LQ/xvqmoWnChw2P85Af6eIGDWnviQKs1fU/NeHq2fWHBUYLs3t96jXQ5sfyZmL4VDUspFdxJSxhTBLIBxtqvZLcKlytgbmwok2lwqn80DDQ/Lt4XdcT2f0hHBHR+mqPup7hOg/Xg20XKHgffStw7VYZJIBBKEM5F6XeTB9TnflivaX8VkoU2WNfjmLxglQmZ8iRt8vkGPR++s6A+V//BlsVJ7fx+d6D86AhW9+UcuZ//qIFHZ7/1FdmIGoZdnvF5IzgBgg9940/UP19yse1B6K1cJhG04oSjthR7eI96kb1MRwAVHKMu+yoN4tOzUlq+ECDF4lqFw/cyFzkoN3o6bTj2pJmlkh7A8+W55SBFwf4uoZP99Dfe+ec3yDjNoZjKXAdo9nE42qmF2zuQvZajg6F9xn6i0aJ0AFQYoYnnmmmQU57wKUgXIK2dTeVbmPdlhru0U5JIRgLPdMgvIyMPnsvHZ5Uf82/gj9E/FWEC2Ol/BdhUyF5AxolyEIU6uRmT1O6Ce37agxBX6Jxd7R4vmRQIjNJHTNePlwAb9+eGTKuMMFwJrDBQRG6kk0NohL9fwJoulX2AiGb/uHnCThxcB8MX6RnMh8l6re6x21pmVYFxc1TKI0+3SWATAZed3PPMj8Pu++f9eBbjl8xJw9gNkQqwFKZeNXQHsgGChkDS/hWiTcZhSVCAQpYmiEMc1Mrc59F+SD2+rSiYCBSAonUiedeqX90dQLHDgXGdztvFyuXWQbmIVswCe/etBwM4FYWARWcRVJpo8LJSbYbYATAnH4paufSdPFENk4aW4UXxJR1DZKXn2Og4uF//ohqYFi/L7T7x6THMcuQ0h5xywmNh6/PO69BJd6JcTDtMv4E0ytfs99PeM1/gTXLNyo5zQ/TmR+uMULzDpgF/+sLExO+fIIF6jG5WKCgntWVX56FdrGD1vQ0kSRSzFyya/j/Y2qc5Gnv2E98D0Ddumy8jAeQUAhiiqqOOBVUIa5MC0gA8+AEueLTMPkEpREuqt0n6G9Duv15ebN95rJ+9i7XYAidshcFwIx6uhXJv8GOR2Y/4MovismFAJn4Gfzpn8SHNichHNZpexwDdx3TxMCTIW4kUtyHYX4bq2gE7RqEMvr1mOIhevwVih/Ar+FbNpgxizBuUiY8ZXVdvvoQ7jZsInxNUpa+tk284Ypo+hEAK9DqFArtlsn0fB84xC6ThlUYcQDI1/ZFgIGJ+x5dG57870mNgG7tkmIArkuBFMG3pzCb+uDWMISgyToSJx2Co0IpF2yy4ox7s1GL3RWvMaXCxCMQy4WAT9HIYNONWjVMOOkiYUPxJ22QmSiJL4j03HmyfGWhc1x7pprkTGDUNrnDPBeXODN0q7mFonZoWN1yI/3+YG70SZQ+QURfLfdvIdiUDbERveZuS6qOGAqEUVMnex6k6FufUekmlGeXXessOf1OcvofnoB1xqBXGprgtF251NnUGdmuo9y6I2S81KAGRMGLc5pIVAP38h3JUJVV2vTUkdrrUyWyexu2cQEcAbYuO+9tkF7ZuJRWWg9yWa1aQY2b5cL6Nv0nKr5Xm5cgCtOMcn1bh6BC+ial9pcOA1ibM+PR98+Ss38eG6kscl0nLmJvKUV1aKnEsJd4xdinHZx6I8Ahya1yVi2N62skluVki+jxtLWidlzHy9EiAkco+AmGsx3u/8XnROgwgRu+x0/fwJNefOIQ6j1AkIZ3ZQItV2plYPOc+pkMnVXQgyY/dzZaV5dowZ9ULAmMKlgK6NwBgYR2CB+Fqdcd5J2hipUTAG4ANHHzHC5ACbkWV94OtICM51E21xHIeYUZUbhAkx5iQC6ad6FENCosR/Rk4wrW5A2nibylgm+Q/yNIAJgMsOlyHtCKFbqA3aWv9MY41cS67M/4+v9Sq7iTBB+QiyeMj/DNfA/QX/oGwhkEG6COruFE6AiFDFC0a5Hc2ybP5iIDy/+gpqpXkrrwLA3Jg1/WS2zoJjkgyIKhZ+IKCLhr8cO2r01qTyjTiZTTeNjoRyJwrbD7z0IAHDm/j7nz+81JhpCza98914unAH9wW7d0Hakmnvdszqybr6cgeECXMQoh5jUfDu6NQSxhTBotoXBcAGMcVhdgNtfCXPhbWwUZhelP4j9OP1r0eYkx5kbBSH10D52f2kf5wukuAu77QhzjWhtvdeQKQ9EmCCmYAOy9U23cAI0Vmy3dcg6froBsN/5oN0I56wpnpUMi4TpxU8xyaTHzFXMZAhAWL+DQrYlV87AIwZXqLNuOk7HZcxFZ4BCFi5AK6uEGNvpy/tkRgey26Mstn8oMs+Ytbd6ufTHKbgQ2Hhv3NMhwmH7Msi7MJc56QYcwWIDJyT9URUUWjxsO6O+FxT4x6+cbuMEaNSEqvF1ohG9mIlmm4vQbhJrYGp1Olvv12j3HnqBuiVdh5byHG4Dii5h0ivZKZCVGRDblEYQjct+e3VgpGG3nijXTGLCmm0PAmC3M1fOAMehO9dUa53BWfvN10E+wyvy4jV+ugDa9cjSQ9Wbv/RMg/hPuFp05gXzwU6aoIvzqesXAsvL2GZjr7ONm5+5kDaASJxa3Zgte/K5URA+FT89eY+5LnO+YnNM9CNK1YYurBtf7DZOgG/qo/pqOKeNtzbfms+xZegF7BOKTJkJbqBaPKtnsGNorayVmIBPtFyoZeFCJnZQ0GHbmwDY35QrZwAxsF2YQ/WTKAPRybhcAHnbRx6jz2/gxynQLBL7B6E25i7zv1+dxl1Ya9PzTEHmQk6qimrCRkEIh2ISRI3vEM6oJs9mFi17txIBY5Zxgz7ydXQU4aJzTfuPMhCKrhL0JJRTXkpVqUQ8KrkBJZJ9dgFvAsBAMUaIK9j3fBIizQmXjdehspjM2VKYoKXZyoj63BADlEzCJc2BMIYxLXpei12OSpf+utQXoGTaU2656kZtY7b3NdCGAKKi9EWbnu39bM+DzIXGuzBbfvs5CkIQhHbS1hGZh7tXTaiJUlZ3vdutRICPCvLi4hnhonPVTnMeQJBeoEO1VS9vXDEDBQ0nKLkYdjgCQlxxVBXBL6IQA4MNP/GKvdWsBT/QaDGXneXb3Dp1X5SGs1D4+YaTP5+EkgkNNLbqKMSAaEp4Lf7tg7MyEjpb3MunnXZeFr8+60L8QgBacUZmocoOmpe5eBeee0RqRGI2I+aEHD+CSNDjUn5bX46fI15cDSX9KicPPeLStBI4Vy/oOLC0l60bsG2ExEqYBpNPAGfIOQlzmPCexrS5QUZkYsUB302xUthlw84B5zUBNDhCyvhzgzYkasubqwYrTp9Z17m3DnDpyrZ2eZvlCGq0xO737rlltqr7j1SIKgToDfkBbeYYKU6RWbhuvzTEnTEFYTrK1C9hnxHUInHK8zS+JRPOIFOZxPgnuaZBkwfgViYXZW1Lz5awtavSQFt7tuxBz2VeLiodNHpi5SFeoFjeY2PBhRwP0rAJZeqXrj49BRgGB+odRV52TL46jLDtCPtetykG7QZlAg9hurs8IlCDstELsNu6RAAxo2PtK1N4B+WknPZa09nR2iC7SUUQIaCMTeIQYgJotDeuVvE2L+hFMmgGm7gYFzJpE5jwnMqUxNI7o0KUpRvvqxOiElMEgWCxo9Ak0EQysow4hwwcF3Y4c38vYUaqEWJQC1BFiMy0bKCjoNq0WXbtK5USNisd5KIXcDB6TcS2RfK8KahsQboLHuLthuDnuT/BXChjlW4ulPBl088Mby5ctS6dLmMq1ed4drTCDRSl/bl+eXprcy0pYj6JNdDYp3LcWNvXnyI05ZVz9HIJm8WpwSic7GQoMDKwsbNy7LOQjDomKcop17st4qekve7Zr5/xFJGeE02D1HUaR4T7OfqkFRDiRqE5AbdKOIN2tZU+mhyFM4ATAMDiwmHd8nviNZxii2pu7D/qgIryvb+WbCKcy6jV16grzu8KCWQ4QsOt8TJEnAQhdzcj7psxQwTLZrtPVt4Nf9ih2bqhuq4qhlcOUx2fbDiJndqWoWMlfdTrb3ykLjhBXIEjpvdWbZYYhiem5CrpMyABK1VLNzRtfI6HG5o2rN21suqettjWw7d9tLQKoEip7L5+snyUJujF/06Dall8t2rbsEwjteS0ppO2qfZGpTpr+g7fI+86THu0u/Smd9XG5qarorQx7Lvrm9Y3bWhqqhs+dMRTwgaNEza9qnXV8/IZ7RLFdifZsP2ZSGO2k75uCFtXT3lvbdPa1mGVw0aJF+phnjnZc8YtEfGoZcBBEoJskHqs8UT1yJsHq1e2fFXrsBrj1RJM5DD9M9aM0kE7+H4Sc0wrxWOdzT2pf7pdMWh6x4CHXG09z3MBapDPL0R4l91ZRstKHphiZTVnKAqksxllExBP2uOGJLPzuX+z8Mmz6fU71EdP1yadQ4B2ooegHrFDa/aWdwuRIFroLYTtfqgQ5WUqIxfTYqbyevqzIDM2GwRafrPQM+mAgr4xaC4Gvd9d9/3JeTfUXgzwkD7jD/gn4BIrcd269pVqv88CMSZsYL2AOWqEGMyQHU8HIWHQkc39bN08R/+Ad5blO/+ObI/1TCKX1UMMmTC2SgKKrk5zoPJrk1Ge6fPkRTwyvg8pSjMRM+Rw2Fq//MW4lwvoqBjtKHaZjJ0oCB+SHfu0oDgNYdoAwTdzw4yjDraCVUPmSZgyuuud7aYT4AO1RjreupLOtkNA84wJ/5spv4kcYJEwTquHfS+l//z0AkEd7OkLOqpl35afwF+dmPDJfEkFV6xBNNX1Dq47rXh0IGWDRo9FGYlegAnBArcXOspHPyUipk0pULiJWINXcElDuSpflC2CTlojCnjDC4jZUWt0BhoeK98DEMzWvxSwym4rim+Lx9ufDNIXmbHTC10IO8kQajaGQOuHnjOxup6mL9muRIDOk8VRFyvtP22YmAtdpdluG3+m7piZQVHsMy04KOPhLbNSnjBYsOpCgS+RAZjtk63otyZUTZgiGOYHgypKLPRGWeiiHY81is9D4/Ze6EFtte8niMEMwcdXAxVGD4IYFCZvT35HuIF6lLlYaWJ9+mvrkB+BNt9gCDV++4yfd7+kgf97+jhuN3Eg2XleCOhp7CCult4DD90dyc+dmGvtH6xOcduFuDCYHVvEgV6p7UIEEn7i49rVthq+HccmdAU9fYKYcQr6PyEmNAQ9/7TeF6+/KbtVjZ+RmDP6M2QT0d9pxo7xy8YBfhq+f7tzAnRSIcFDeJz9fqEcRGJF8KEOot0CGy4UuObTMLi9beztgTA9sN2sA3bjEuAh37hqgIeiuLOC7vNLRlnongXv927vvd4e+Dz1QI8gApkiD4WJ8mLw+zgB/W0UmksAAAHBSURBVOjhs9O4AAbUYNnNSS+fp0Hu/dbeHsjUA9tdJ2AaJ/JVYOQhvygvcAccKX3HkzuolW2HeyfkjPSP7U4dJpqROeklU6f0Puvtgc9TD/QYIgB4qCXWXCuRh1IgmwwG4KHzZr2tpp2wSTvvpByNNUpirIcYMQuoE83cEKLs3ld6e+DT3AM9QjFoOhBzoZiZpvlh7I0NGkx2VHgvENuPV8zTJp6ehtv+NE+e3rZ/NnqgRxEBAx4ykWby6WIAHYCEMD3qOANFcj/Np429eXt7oCf0QI8iAnQIIA3Z6sXj7srI/cOOD9IQXH0StSXgFVEL1hciAk3kBvVm6O2BT0EP9BidQFdflXJs2Wns4m64ar/+ZOGz6CWseDKyEI414hhUP0gNrt+e0Fq/9vbe6+2BntYDPY4ToIMMzt6O8GI6DgWfXvSJxa/vizON/CtOGb07fk+bYL3t6fk90AM5AU5JLaklwouJbINXHTu9caFNLHzttYdTTS+r3/MnWm8Le24P9EhOgO4yloKUrhPlniz6+hLxN/gsYLZ77rTobdnnqQd6LBHwCMGEKZwsjMNGH9Vnkeun/3kaqN5v7e2BYvXA/wd5FliEDNvjfQAAAABJRU5ErkJggg==;" vertex="1" parent="1">
          <mxGeometry x="-160" y="440" width="199.61" height="80" as="geometry" />
        </mxCell>
      </root>
    </mxGraphModel>
  </diagram>
</mxfile>
